<svg xmlns="http://www.w3.org/2000/svg">
  <symbol viewBox="0 0 8 6" id="svg-arrow-down">
    <title>&#xD6;ffnen</title>
    <path d="M1.5 0L0 1.5l4 4 4-4L6.5 0 4 2.5 1.5 0z" />
  </symbol>
  <symbol viewBox="0 0 14 12" id="svg-buzz-comment">
    <title>Kommentare</title>
    <path d="M.31 8.774h2.362v2.893c0 .34.21.436.465.21l3.406-3.103H12.9c.17 0 .31-.14.31-.31V.31c0-.17-.14-.31-.31-.31H.31C.14 0 0 .14 0 .31v8.155c0 .17.14.31.31.31z" />
  </symbol>
  <symbol viewBox="0 0 22 11" id="svg-buzz-read">
    <title>Leser</title>
    <path d="M21.283 5.5C18.836 8.844 14.98 11 10.643 11S2.446 8.844 0 5.5C2.447 2.156 6.303 0 10.642 0s8.194 2.156 10.64 5.5zM10.76 9c1.85 0 3.35-1.567 3.35-3.5S12.61 2 10.76 2 7.414 3.567 7.414 5.5 8.913 9 10.76 9zm0-2c.794 0 1.436-.672 1.436-1.5S11.554 4 10.76 4c-.79 0-1.434.672-1.434 1.5S9.97 7 10.76 7z"
    />
  </symbol>
  <symbol viewBox="0 0 17 12" id="svg-buzz-shared">
    <title>Teilen</title>
    <path d="M13.71 0l-1.25.8 1.71 2.91c-4.04.077-7.084.644-10.26 4.237L4.87 9c3.396-3.366 6.05-3.55 9.216-3.54l-1.65 2.968 1.25.845 3.12-4.788L13.71 0zM9.622 10.64H1.345V1.47h8.277v1.82c.44-.106.887-.19 1.345-.257V.11H0V12h10.967V6.558c-.45.08-.897.19-1.345.344v3.738z"
    />
  </symbol>
  <symbol viewBox="0 0 19 12" id="svg-buzz-trending">
    <title>Aufsteigend</title>
    <path d="M18.573 0l-7.897 1.7L12.94 3.96 9.4 7.502 6.07 4.113 0 10.184l1.543 1.54 4.513-4.512 3.33 3.387 5.096-5.095 2.406 2.406L18.573 0" />
  </symbol>
  <symbol viewBox="0 0 18 18" id="svg-close">
    <title>Schlie&#xDF;en</title>
    <path d="M16.207 3.207l-1.414-1.414L9 7.586 3.207 1.793 1.793 3.207 7.586 9l-5.793 5.793 1.414 1.414L9 10.414l5.793 5.793 1.414-1.414L10.414 9" />
  </symbol>
  <symbol viewBox="0 0 16 16" id="svg-comment-author">
    <title>ZEIT ONLINE Redaktion</title>
    <path d="M12.25 10.66c-.316.593-2.12 2.267-4.474 2.267H6.174L12.5 2.557H6.542c-.714 0-1.396-.058-1.396-.058S4.038 5.015 3.938 5.232c-.07.154.088.23.186.065.303-.505 1.625-2.153 4.275-2.153h1.35L3.5 13.5h7.612s1.22-2.658 1.278-2.79c.058-.135-.076-.173-.14-.05zm-6.823 2.268h-.853c-.04 0-.053-.032-.027-.073l5.867-9.636c.025-.042.078-.075.117-.075h.854c.04 0 .052.033.027.074l-5.868 9.635c-.024.04-.076.073-.115.073z"
    />
  </symbol>
  <symbol viewBox="0 0 12 12" id="svg-comment-recommend">
    <title>Empfehlen</title>
    <path d="M6 9.163L2.292 12l1.42-4.585L0 4.583l4.585.003L6 0l1.414 4.586L12 4.583 8.288 7.415 9.708 12" />
  </symbol>
  <symbol viewBox="0 0 12 10" id="svg-comment-reply">
    <title>Antworten</title>
    <path d="M4.923 3.07V0L0 4.648l4.923 4.784V6.38c3.6.03 6.553 1.58 7.015 3.62.03-.247.062-.494.062-.772 0-3.126-3.077-5.694-7.077-6.157z" />
  </symbol>
  <symbol viewBox="0 0 8 10" id="svg-comment-report">
    <title>Melden</title>
    <g>
      <path d="M8 0H2v5h6L6.444 2.5M0 0h1v10H0z" />
    </g>
  </symbol>
  <symbol viewBox="0 0 32 22" id="svg-gallery">
    <title>Bildergalerie</title>
    <g stroke="#FFF">
      <path d="M5.5.5h26v17h-26z" />
      <path d="M.5 4.5h26v17H.5z" />
    </g>
  </symbol>
  <symbol viewBox="0 0 18 18" id="svg-menu">
    <title>Menu</title>
    <g>
      <path d="M0 3h18v2H0zM0 8h18v2H0zM0 13h18v2H0z" />
    </g>
  </symbol>
  <symbol viewBox="0 0 18 18" id="svg-navigation-login">
    <title>navigation-login</title>
    <g>
      <path d="M9.276 9.462l-2.69 1.788 1.607 1.608 3.858-3.86-3.857-3.86-1.608 1.61L9.2 8.484l-2.55-.498H0v2.043h6.667" />
      <path d="M2.936 0v4.452h1.706V1.705h11.18v14.59H4.64v-2.75H2.936V18h14.59V0" />
    </g>
  </symbol>
  <symbol viewBox="-472 273 15 16" id="svg-promoted">
    <title>promoted</title>
    <path d="M-458.9 288.6h-11.2c-1 0-1.9-.8-1.9-1.9v-11.2c0-1 .8-1.9 1.9-1.9h11.2c1 0 1.9.8 1.9 1.9v11.2c0 1-.8 1.9-1.9 1.9zm-1.6-5c-.3.6-2 2.1-4.2 2.1h-1.5l5.9-9.7h-5.6c-.7 0-1.3-.1-1.3-.1s-1 2.4-1.1 2.6c-.1.1.1.2.2.1.3-.5 1.5-2 4-2h1.3l-5.9 9.7h7.1s1.1-2.5 1.2-2.6c.1-.2-.1-.2-.1-.1zm-6.4 2.1h-.8v-.1l5.5-9 .1-.1h.8v.1l-5.5 9c0 .1-.1.1-.1.1z"
    />
  </symbol>
  <symbol viewBox="0 0 17 15" id="svg-recommended">
    <title>status-leseremp</title>
    <path d="M8.5 11.623l-4.996 3.42 1.913-5.528-5-3.415 6.178.004L8.5.572l1.905 5.532 6.18-.004-5.002 3.415 1.913 5.53" fill-rule="evenodd" />
  </symbol>
  <symbol viewBox="0 0 16 16" id="svg-search">
    <title>Suche</title>
    <path d="M15.32 13.34l-4.17-4.203c.525-.86.835-1.865.835-2.944C11.985 3.076 9.45.54 6.332.54S.68 3.076.68 6.193s2.536 5.653 5.653 5.653c.95 0 1.844-.238 2.63-.653L13.2 15.46l2.12-2.12zM2.68 6.19c0-2.014 1.64-3.652 3.653-3.652s3.653 1.64 3.653 3.652c0 2.015-1.64 3.653-3.653 3.653S2.68 8.207 2.68 6.192z"
    />
  </symbol>
  <symbol viewBox="0 0 48 48" id="svg-servicebox-abo-services">
    <title>servicebox-abo-services</title>
    <path d="M29.687 14.232l.51.51 3.06 3.06.51.51.51-.51 1.022-1.018.508-.512c.28-.28.282-.738 0-1.02l-3.06-3.06c-.28-.28-.74-.28-1.02 0l-.51.51-1.02 1.02-.51.51zM15.615 28.305l12.84-12.84 4.08 4.08-12.84 12.84zM14.38 29.54l-2.365 6.152c-.1.262.03.393.292.292l6.152-2.363-4.08-4.08z"
    />
  </symbol>
  <symbol viewBox="0 0 48 48" id="svg-servicebox-apps-epaper">
    <title>iPhone</title>
    <path d="M19 16h10v15H19z" opacity=".3" />
    <path d="M28.5 12h-9c-1.375 0-2.5 1.125-2.5 2.5v19c0 1.375 1.125 2.5 2.5 2.5h9c1.375 0 2.5-1.125 2.5-2.5v-19c0-1.375-1.125-2.5-2.5-2.5zM24 35.27c-.98 0-1.772-.792-1.772-1.77s.793-1.77 1.772-1.77c.978 0 1.77.792 1.77 1.77s-.792 1.77-1.77 1.77zM19 31V16h10v15H19z"
    />
  </symbol>
  <symbol viewBox="0 0 48 48" id="svg-servicebox-automarkt">
    <title>Auto</title>
    <path d="M36.5 20h-1.9l-1.643-5.475C32.39 13.39 31.953 13 30.64 13H17.36c-1.313 0-1.75.39-2.317 1.525L13.4 20h-1.9c-.276 0-.5.224-.5.5v1c0 .276.224.5.5.5h.917L12 23v11.5c0 .275.225.5.5.5h2c.275 0 .5-.225.5-.5V33h18v1.5c0 .275.225.5.5.5h2c.275 0 .5-.225.5-.5V23l-.417-1h.917c.276 0 .5-.224.5-.5v-1c0-.276-.224-.5-.5-.5zm-19.873-4.596c.125-.22.295-.404.607-.404h13.532c.312 0 .482.185.607.404.168.37 1.187 4.596 1.187 4.596H15.44s1.018-4.227 1.187-4.596zM17 27h-3l-1-1v-2.1l4 1.1v2zm11 4h-8v-2h8v2zm7-5l-1 1h-3v-2l4-1.1V26z"
    />
    <path d="M16.627 15.404c.125-.22.295-.404.607-.404h13.53c.313 0 .483.185.608.404.17.37 1.188 4.596 1.188 4.596H15.44s1.018-4.227 1.187-4.596z" opacity=".3" />
  </symbol>
  <symbol viewBox="0 0 48 48" id="svg-servicebox-bildung-weiterbildung">
    <title>Buch</title>
    <path d="M35 16.8v-1.323s-2.292-1.328-5.74-1.328c-3.448 0-5.26 1.25-5.26 1.25s-1.813-1.25-5.26-1.25c-3.448 0-5.74 1.327-5.74 1.327V16.8l-1 .53V33.04s4.53-1.58 7-1.58c2.467 0 5 .886 5 .886s2.532-.885 5-.885c.306 0 .643.025 1 .067v4.325l1.53-2.016L33 35.852v-3.72c2 .43 3 .906 3 .906V17.332l-1-.532zM23 29.03c-1-.292-2.584-.68-3.98-.68-2.247 0-3.02.405-4.02.7V16.634s1.125-.7 4.02-.7c1.693 0 2.98.418 3.98 1.127v11.97zm10 .02c-1-.294-1.773-.698-4.02-.698-1.396 0-2.98.387-3.98.68V17.06c1-.71 2.286-1.126 3.98-1.126 2.895 0 4.02.7 4.02.7V29.05z"
    />
  </symbol>
  <symbol viewBox="0 0 48 48" id="svg-servicebox-ferienhaeuser">
    <title>Bett</title>
    <path d="M35 18v4h-2v-1c0-1.104-.895-2-2-2h-3c-1.105 0-2 .896-2 2v1h-4v-1c0-1.104-.895-2-2-2h-3c-1.105 0-2 .896-2 2v1h-2v-4c0-2.2 1.8-4 4-4h14c2.2 0 4 1.8 4 4zM13 34c0 .552.448 1 1 1h1c.552 0 1-.448 1-1v-1h-3v1zm21-11H14c-1.1 0-2 .9-2 2v7h24v-7c0-1.1-.9-2-2-2zm-2 11c0 .552.448 1 1 1h1c.552 0 1-.448 1-1v-1h-3v1z"
    />
  </symbol>
  <symbol viewBox="0 0 48 48" id="svg-servicebox-headhunter">
    <title>Krawatte</title>
    <path d="M25.7 17.984l2.2-3.81-4.4-2.19-4.4 2.19 2.2 3.81-3.3 14L23.5 37l5.5-5-3.3-14.016z" />
  </symbol>
  <symbol viewBox="0 0 48 48" id="svg-servicebox-immobiliensuche">
    <title>Haus</title>
    <path d="M32 18.05V11h-4v3.082l-3.483-3.454-.002-.048L11.033 24H15v12h7v-8h5v8h7V24h4" />
  </symbol>
  <symbol viewBox="0 0 48 48" id="svg-servicebox-jobsuche">
    <title>Aktentasche</title>
    <path d="M34 17h-3v-1h-2c0-1.654-1.346-3-3-3h-4c-1.654 0-3 1.346-3 3h-2v1h-3c-1.1 0-2 .9-2 2v4.5l3.5 2.5H22v-1.48h4V26h6.5l3.5-2.5V19c0-1.1-.9-2-2-2zm-12-2h4c.55 0 1 .448 1 1v1h-6v-1c0-.552.45-1 1-1z" />
    <path d="M26 27v1h-4v-1h-6.938L12 25v7c0 1.1.9 2 2 2h20c1.1 0 2-.9 2-2v-7l-3 2h-7z" />
  </symbol>
  <symbol viewBox="0 0 48 48" id="svg-servicebox-kataloge">
    <title>Kaesten</title>
    <path d="M33.5 12H17.542c-.275 0-.542.225-.542.5V15h14v1.5l.03 15.5h2.47c.275 0 .5-.225.5-.5v-19c0-.275-.225-.5-.5-.5z" />
    <path d="M13.5 16c-.275 0-.5.225-.5.5v19c0 .275.225.5.5.5h16c.275 0 .5-.225.5-.5V16H13.5z" />
  </symbol>
  <symbol viewBox="0 0 48 48" id="svg-servicebox-kulturangebote">
    <title>Bank</title>
    <path d="M36 35.5c0 .276-.224.5-.5.5h-23c-.276 0-.5-.224-.5-.5v-1c0-.276.224-.5.5-.5h23c.276 0 .5.224.5.5v1zM12 22.385c0-.268.178-.682.394-.85l11.21-9.26c.218-.168.573-.152.79.016l11.21 9.235c.218.168.396.593.396.86s-.225.615-.5.615H33v8h1.5c.275 0 .5.214.5.49v1c0 .275-.225.51-.5.51h-21c-.275 0-.5-.235-.5-.51v-1c0-.276.225-.49.5-.49H15v-8h-2.5c-.275 0-.5-.35-.5-.615zM19 31v-8h-2v8h2zm4 0v-8h-2v8h2zm4 0v-8h-2v8h2zm4-8h-2v8h2v-8z"
    />
  </symbol>
  <symbol viewBox="0 0 48 48" id="svg-servicebox-newsletter">
    <title>servicebox-newsletter</title>
    <path d="M24 28L12 16h24L24 28zm0 2l-5-5-7 7h24l-7-7-5 5zm6-6l6 6V18l-6 6zm-18-6v12l6-6-6-6z" />
  </symbol>
  <symbol viewBox="0 0 48 48" id="svg-servicebox-partbersuche">
    <title>Herz</title>
    <path d="M24 16.402c-3.982-6.1-11.78-2.1-11.78 3.524C12.22 24.264 19 28 24 34.836 29 28 35.78 24.264 35.78 19.926c0-5.625-7.55-9.623-11.78-3.524z" />
  </symbol>
  <symbol viewBox="0 0 48 48" id="svg-servicebox-partnersuche">
    <title>Herz</title>
    <path d="M24 16.402c-3.982-6.1-11.78-2.1-11.78 3.524C12.22 24.264 19 28 24 34.836 29 28 35.78 24.264 35.78 19.926c0-5.625-7.55-9.623-11.78-3.524z" />
  </symbol>
  <symbol viewBox="0 0 48 48" id="svg-servicebox-schach">
    <title>Schach</title>
    <path d="M16.053 20.613c0-4.61 3.947-8.36 7.947-8.575V14l7 2.62v3l-6.962.996C24.422 25.322 29 26.02 29 29h-9.21c-2.878-2.088-3.737-5.42-3.737-8.387zM33 33H16c-.55 0-1 .45-1 1v2h19v-2c0-.55-.45-1-1-1zm-15-3c-.55 0-1 .45-1 1s.45 1 1 1h13c.55 0 1-.45 1-1s-.45-1-1-1H18z"
    />
  </symbol>
  <symbol viewBox="0 0 48 48" id="svg-servicebox-seniorenratgeber">
    <title>Kreuz</title>
    <path d="M36 14.5c0-1.38-1.12-2.5-2.5-2.5h-19c-1.38 0-2.5 1.12-2.5 2.5v19c0 1.38 1.12 2.5 2.5 2.5h19c1.38 0 2.5-1.12 2.5-2.5v-19zM33 27h-6v6h-6v-6h-6v-6h6v-6h6v6h6v6z" />
  </symbol>
  <symbol viewBox="0 0 48 48" id="svg-servicebox-spiele">
    <title>W&#xFC;rfel</title>
    <path d="M37.985 20.38l-6.364-6.365c-1.165-1.167-3.075-1.167-4.24 0L21.393 20H25c1.65 0 3 1.35 3 3v3.51c.322-.487.874-.81 1.5-.81.992 0 1.8.808 1.8 1.8s-.808 1.8-1.8 1.8c-.626 0-1.178-.322-1.5-.81v2.958c1.146.662 2.644.516 3.62-.463l6.365-6.364c1.167-1.165 1.167-3.075 0-4.24zM29.5 19.3c-.992 0-1.8-.808-1.8-1.8s.808-1.8 1.8-1.8 1.8.808 1.8 1.8-.808 1.8-1.8 1.8zm5 5c-.992 0-1.8-.808-1.8-1.8s.808-1.8 1.8-1.8 1.8.808 1.8 1.8-.808 1.8-1.8 1.8zM24 21h-9c-1.65 0-3 1.35-3 3v9c0 1.65 1.35 3 3 3h9c1.65 0 3-1.35 3-3v-9c0-1.65-1.35-3-3-3zm-8.5 13.3c-.993 0-1.8-.808-1.8-1.8s.807-1.8 1.8-1.8 1.8.808 1.8 1.8-.807 1.8-1.8 1.8zm0-8c-.993 0-1.8-.808-1.8-1.8s.807-1.8 1.8-1.8 1.8.808 1.8 1.8-.807 1.8-1.8 1.8zm4 4c-.993 0-1.8-.808-1.8-1.8s.807-1.8 1.8-1.8 1.8.808 1.8 1.8-.807 1.8-1.8 1.8zm4 4c-.993 0-1.8-.808-1.8-1.8s.807-1.8 1.8-1.8 1.8.808 1.8 1.8-.807 1.8-1.8 1.8zm0-8c-.993 0-1.8-.808-1.8-1.8s.807-1.8 1.8-1.8 1.8.808 1.8 1.8-.807 1.8-1.8 1.8z"
    />
  </symbol>
  <symbol viewBox="0 0 48 48" id="svg-servicebox-studiengangsuche">
    <title>Studium</title>
    <path d="M24.5 28.374L32 25.06V29l-7.5 3.32L17 29v-3.94l7.5 3.314zm-9.5-3.84l1.803-1.2 7.697 3.4 12.814-5.662L24.5 15.41 11.686 21.07l2.95 1.303-1.19.793c-.28.186-.446.498-.446.832v3l-1 3v4l2-1.975 2 1.972V30l-1-3v-2.465z" />
  </symbol>
  <symbol viewBox="0 0 48 48" id="svg-servicebox-tarifvergleiche">
    <title>Tabelle</title>
    <path d="M34 23v-1h-6v-3h-1v3h-6v-3h-1v3h-6v1h6v3h-6v1h6v3h-6v1h6v3h1v-3h6v3h1v-3h6v-1h-6v-3h6v-1h-6v-3h6zm-7 7h-6v-3h6v3zm0-4h-6v-3h6v3z" opacity=".3" />
    <path d="M34 34H14V19h20v15zm0-17H14v-3h20v3zm-19-5c-1.65 0-3 1.35-3 3v18c0 1.65 1.35 3 3 3h18c1.65 0 3-1.35 3-3V15c0-1.65-1.35-3-3-3H15z" />
    <path d="M14 14h20v3H14z" opacity=".3" />
  </symbol>
  <symbol viewBox="0 0 48 48" id="svg-servicebox-uni-rankings">
    <title>Zertifikat</title>
    <path d="M28.88 28.088l-1.584 2.85L24.5 29.26l-2.796 1.677-1.584-2.85-1.12.018V37l5.5-5 5.5 4.993v-8.888" />
    <path d="M31.512 20.5l1.342-2.238-2.28-1.268.042-2.61-2.61.043-1.267-2.28-2.24 1.342-2.238-1.344-1.268 2.28-2.61-.042.044 2.61-2.28 1.267 1.34 2.24-1.34 2.237 2.28 1.268-.043 2.61 2.61-.043 1.267 2.28L24.5 27.51l2.238 1.342 1.268-2.28 2.61.042-.044-2.61 2.28-1.267-1.34-2.237zm-7.814-4.05l-1.01-.65-.576 1.103-1.246-.02.03 1.266-1.1.612.653.935L18.755 21l.482-.65-1.008-1.604 1.712-.913-.03-1.94 1.958.04.95-1.706 1.53 1.01.65-.478-1.302 1.69z"
    />
  </symbol>
  <symbol viewBox="0 0 48 48" id="svg-servicebox-urlaubsziele">
    <title>Flugzeug</title>
    <path d="M35.62 29.115L27 21.918v-6.98C27 13.49 26 12 24.034 12 22.068 12 21 13.487 21 14.94v6.978l-8.62 7.197c-.21.178-.38.55-.38.823v1.71c0 .274.2.395.442.267L22 26.938v6l-2.606 2.11c-.216.17-.394.532-.394.806v.755c0 .273.216.435.48.358l3.52-1.03c.265-.077 1.735-.077 2 0l3.52 1.03c.264.078.48-.084.48-.36v-.754c0-.274-.178-.638-.395-.807L26 32.937v-6l9.557 4.968c.244.127.443.007.443-.268V29.94c0-.276-.172-.647-.38-.825z"
    />
  </symbol>
  <symbol viewBox="0 0 48 48" id="svg-servicebox-zeit-audio">
    <title>Kopfhoerer</title>
    <path d="M18.373 27.508s.5 1.492.5 3.992-.5 4-.5 4c0 .275-.225.5-.5.5h-2.53c-.275 0-.343-.225-.343-.5v-7.984c0-.276.068-.516.344-.516h2.53c.274 0 .5.232.5.508zM32.656 27h-2.53c-.274 0-.5.232-.5.508 0 0-.5 1.488-.5 3.988s.5 4.002.5 4.002c0 .275.226.502.5.502h2.53c.276 0 .344-.225.344-.5v-7.984c0-.276-.068-.516-.344-.516zM24 12.5c-6.34 0-12 5.66-12 12v6c0 .275.225.5.5.5h1c.275 0 .5-.225.5-.5v-6c0-5.238 4.762-9 10-9s10 3.762 10 9v6c0 .275.225.5.5.5h1c.275 0 .5-.225.5-.5v-6c0-6.34-5.66-12-12-12z"
    />
  </symbol>
  <symbol viewBox="0 0 15 13" id="svg-shuffle">
    <title>Shuffle</title>
    <g>
      <path d="M10.745 3.573h1.216l-.607.608c-.304.305-.304.914 0 1.218.203.202.405.202.608.202.204 0 .406-.1.61-.202l2.026-2.028.102-.1v-.204-.507-.102s0-.1-.102-.1l-.1-.103L12.467.228c-.304-.304-.912-.304-1.217 0-.303.304-.303.912 0 1.216l.61.406h-1.217c-2.432 0-3.852 2.23-5.068 4.054C4.46 7.628 3.445 9.25 1.825 9.25H.81c-.405 0-.81.405-.81.81 0 .507.405.913.81.913h1.015c2.534 0 3.85-2.13 5.17-4.055 1.114-1.723 2.128-3.345 3.75-3.345"
      />
      <path d="M14.698 10.466s0-.1 0 0v-.71-.1l-.102-.102-2.027-2.028c-.305-.304-.913-.304-1.217 0-.304.304-.304.913 0 1.217l.608.608h-1.215c-.913-.1-1.622-.506-2.433-1.52-.304-.304-.81-.405-1.216-.1-.305.303-.406.81-.102 1.215.71.913 1.926 2.028 3.65 2.028h1.216l-.61.608c-.303.305-.303.913 0 1.217.204.203.407.203.61.203.202 0 .405-.1.608-.203l2.027-2.027.1-.1.103-.204M.81 3.573h1.015c.81 0 1.62.406 2.33 1.42.204.202.406.303.61.303s.405-.1.506-.202c.508-.305.61-.81.305-1.217-.71-.912-1.926-2.027-3.75-2.027H.81c-.405 0-.81.405-.81.912 0 .406.405.81.81.81"
      />
    </g>
  </symbol>
  <symbol viewBox="0 0 14 16" id="svg-sorting">
    <title>Sortierung</title>
    <g>
      <path d="M3.5 16L7 12.79H4.826V1H2.174v11.79H0L3.5 16zM10.5 0L7 3.21h2.174V15h2.652V3.21H14L10.5 0z" />
    </g>
  </symbol>
  <symbol viewBox="0 0 17 14" id="svg-spinner">
    <title>Synchronisierung</title>
    <path d="M13.337 2.086L11.8 3.7c-.835-.876-1.987-1.418-3.26-1.418-2.547 0-4.612 2.17-4.612 4.842h1.79l-2.86 3.003L0 7.124h1.754C1.754 3.19 4.792 0 8.54 0c1.873 0 3.57.797 4.797 2.086zM17 6.876l-2.858-3.003-2.86 3.003h1.79c0 2.673-2.065 4.842-4.61 4.842-1.275 0-2.427-.542-3.262-1.418l-1.537 1.614C4.89 13.204 6.587 14 8.46 14c3.748 0 6.786-3.19 6.786-7.124H17z"
    />
  </symbol>
  <symbol viewBox="0 0 32 22" id="svg-video">
    <title>video</title>
    <path opacity=".3" d="M30 1H2c-.552 0-1 .45-1 1v18c0 .55.448 1 1 1h28c.552 0 1-.45 1-1V2c0-.55-.448-1-1-1" />
    <path d="M12.5 15.5v-9l9 4.5" />
    <path d="M30 1c.552 0 1 .45 1 1v18c0 .55-.448 1-1 1H2c-.552 0-1-.45-1-1V2c0-.55.448-1 1-1h28m0-1H2C.9 0 0 .9 0 2v18c0 1.1.9 2 2 2h28c1.102 0 2-.9 2-2V2c0-1.1-.898-2-2-2" />
  </symbol>
</svg>