<?xml version="1.0" encoding="UTF-8" standalone="no"?>
<svg width="16px" height="17px" viewBox="0 0 16 17" version="1.1" xmlns="http://www.w3.org/2000/svg" xmlns:xlink="http://www.w3.org/1999/xlink" xmlns:sketch="http://www.bohemiancoding.com/sketch/ns">
    <!-- Generator: Sketch 3.3.2 (12043) - http://www.bohemiancoding.com/sketch -->
    <title>komm-autor</title>
    <desc>Created with Sketch.</desc>
    <defs></defs>
    <g id="Page-1" stroke="none" stroke-width="1" fill="none" fill-rule="evenodd" sketch:type="MSPage">
        <g id="kommentare-blogs-mobile-p1-logged-in" sketch:type="MSArtboardGroup" transform="translate(-92.000000, -556.000000)">
            <g id="Group" sketch:type="MSLayerGroup" transform="translate(0.000000, 523.500000)">
                <g id="komm-autor" transform="translate(92.000000, 33.000000)" sketch:type="MSShapeGroup">
                    <rect id="Rectangle-73" fill="#26262C" x="0" y="0" width="16" height="16" rx="1.30000007"></rect>
                    <path d="M12.4545455,10.4991475 C12.4385127,10.4366151 12.3403921,10.3746959 12.2589456,10.4212886 C11.1674345,11.9472 10.011151,12.7257888 7.29071015,12.7257888 L6.2158731,12.7257888 L12.2429129,2.80644481 L12.2429129,2.71325938 L6.72122608,2.71325938 C6.26525404,2.71325938 5.53223569,2.69793283 5.04355679,2.66666667 C4.70173808,3.60097324 4.27783158,4.51995325 3.82185954,5.46958637 C3.83789231,5.5321187 3.95204565,5.57871142 4.01745936,5.54744526 C5.06023087,4.13065885 5.82531477,3.28953771 8.77406225,3.28953771 L9.57249431,3.28953771 L3.54545455,13.2088817 L3.54545455,13.2867406 L9.32815486,13.2867406 C9.94701987,13.2867406 10.5658849,13.3020672 11.1687171,13.3333333 C11.5426014,12.3830872 11.9818993,11.4487806 12.4545455,10.4991475 L12.4545455,10.4991475 L12.4545455,10.4991475 Z M10.8910295,3.28892465 L5.18977567,12.7251758 L4.89669659,12.7251758 L10.5979504,3.28892465 L10.8910295,3.28892465 L10.8910295,3.28892465 Z" id="path21345_1_-2" fill="#FFFFFF"></path>
                </g>
            </g>
        </g>
    </g>
</svg>